<?xml version="1.0" encoding="utf-8"?>
<!-- Generator: Adobe Illustrator 25.2.1, SVG Export Plug-In . SVG Version: 6.00 Build 0)  -->
<svg version="1.1" id="レイヤー_1" xmlns="http://www.w3.org/2000/svg" xmlns:xlink="http://www.w3.org/1999/xlink" x="0px"
	 y="0px" viewBox="0 0 428.4 144" style="enable-background:new 0 0 428.4 144;" xml:space="preserve">
<style type="text/css">
	.st0{fill:#D1CCCD;}
</style>
<g id="レイヤー_2_1_">
	<g id="レイヤー_4">
		<path class="st0" d="M250.8,31.2V0h-31.2v92.8h31.2V144H282V0C264.8,0,250.8,14,250.8,31.2z"/>
		<rect x="292.7" class="st0" width="47.1" height="24.2"/>
		<path class="st0" d="M323.9,36.5h-31.2V144h31.2l0,0c16.9-0.4,30.5-14.2,30.5-31.2V67.7C354.4,50.7,340.8,36.9,323.9,36.5z"/>
		<path class="st0" d="M396.2,36.5V25.3V0H365v25.3v11.2v56.3v0.1V144h31.2c16.9-0.4,30.5-14.2,30.5-31.2V67.7
			C426.7,50.7,413.1,36.9,396.2,36.5z"/>
		<rect x="146.2" class="st0" width="47.1" height="24.2"/>
		<path class="st0" d="M177.4,36.5h-31.2V144h31.2l0,0c16.9-0.4,30.5-14.2,30.5-31.2V67.7C207.8,50.7,194.3,36.9,177.4,36.5z"/>
		<path class="st0" d="M104.1,36.5V0H72.9v67.7v25.1v20c0,17,13.6,30.8,30.5,31.2h31.2V36.5H104.1z"/>
		<path class="st0" d="M410.2,25c6.6,2.3,12.6,6,17.6,11.1c0.2,0.2,0.4,0.5,0.6,0.7V0h-18.2V25L410.2,25z"/>
		<path class="st0" d="M31.2,36.5V25.3V0H0v25.3v11.2v56.3v0.1V144h31.2c16.9-0.4,30.5-14.2,30.5-31.2V67.7
			C61.7,50.7,48.1,36.9,31.2,36.5z"/>
		<path class="st0" d="M45.2,24.9c6.6,2.3,12.6,6,17.6,11.1c0.2,0.2,0.4,0.5,0.6,0.7V0H45.2V24.9z"/>
	</g>
</g>
</svg>
