<?xml version="1.0" encoding="utf-8"?>
<!-- Generator: Adobe Illustrator 25.2.1, SVG Export Plug-In . SVG Version: 6.00 Build 0)  -->
<svg version="1.1" id="レイヤー_1" xmlns="http://www.w3.org/2000/svg" xmlns:xlink="http://www.w3.org/1999/xlink" x="0px"
	 y="0px" viewBox="0 0 85.3 11.2" style="enable-background:new 0 0 85.3 11.2;" xml:space="preserve">
<style type="text/css">
	.st0{fill:#1A0203;}
</style>
<g id="レイヤー_2_1_">
	<g id="レイヤー_1-2">
		<path class="st0" d="M10.3,5.3c-1-0.3-1.9-0.8-2.7-1.5C6.8,3.2,6.1,2.4,5.5,1.6C5,2.3,4.3,3,3.6,3.6C2.8,4.3,1.9,4.9,0.9,5.3
			L0,4.3c1.2-0.4,2.3-1,3.2-1.9C4,1.7,4.7,0.9,5.2,0l1.2,0.4c0.1,0,0.2,0.1,0.2,0.2c0,0.2-0.1,0.2-0.2,0.2c0.6,1,1.5,1.8,2.5,2.4
			c0.7,0.5,1.5,0.8,2.3,1L10.3,5.3z M8.3,8l-1,1.8c-0.3,0.5-0.5,1-0.8,1.4l-1.3-0.5c0.8-1,1.4-2.1,2-3.2H4.6c-0.8,0-2.2,0.1-2.9,0.1
			V6.3c0.4,0,2,0.1,2.3,0.1h2.6c0.5,0,1.5,0,2-0.1l0.4,0.5L8.3,8z M6.4,5.3H4.7c-0.4,0-1.3,0.1-1.5,0.1V4.2c0.5,0.1,1,0.1,1.5,0.1
			h1.7c0.5,0,1,0,1.5-0.1v1.3C7.4,5.4,6.9,5.3,6.4,5.3z"/>
		<path class="st0" d="M15.8,3.4c-0.1,0-0.3,0-0.4,0s-0.1,0.2-0.5,0.7c-0.2,0.3-0.3,0.4-0.4,0.6s0.1,0.1,0.2,0.2c0,0,0,0.1,0,0.1
			c0,0,0,0.1,0,0.1c-0.1,0-0.1,0.1-0.2,0.2c0,0.6,0,0.9,0,1.3v2.4c0,0.7,0,1.5,0.1,2.2h-1.3c0-0.1,0-0.2,0.1-1.1c0-0.2,0-0.9,0-1.1
			V5.8c-0.3,0.3-0.7,0.6-1.1,0.9l-0.8-0.8c1.5-0.8,2.6-2,3.4-3.5l0.9,0.7c0.1,0.1,0.1,0.1,0.1,0.2C15.9,3.4,15.8,3.4,15.8,3.4z
			 M15.1,1.2c-0.6,0.8-1.4,1.5-2.3,2L12,2.3c1-0.5,1.9-1.3,2.5-2.2l0.9,0.8c0.1,0,0.1,0.1,0.1,0.2C15.5,1.2,15.4,1.2,15.1,1.2z
			 M21.5,6.3c-0.1-0.3-0.2-0.7-0.4-1c-0.4,0.1-1.8,0.3-2.6,0.4c-0.1,0.2-0.1,0.4-0.2,0.6h0.9c0.5,0,0.9,0,1.4-0.1l0.6,0.6
			c-0.4,0.9-1,1.7-1.6,2.4c0.8,0.5,1.7,0.8,2.7,0.7l-0.5,1.1c-1.1-0.1-2.1-0.6-3-1.2c-0.9,0.6-2,1.1-3.2,1.2l-0.6-1
			c1.1,0,2.1-0.3,3-0.9c-0.3-0.4-0.6-0.7-0.8-1.2c-0.4,0.6-1,1-1.6,1.3l-0.9-0.9C15.9,8,16.9,7,17.4,5.8C16.4,6,16.3,6,15.9,6
			c0,0.1-0.1,0.1-0.1,0.2c0,0-0.1,0-0.1,0c-0.1,0-0.1-0.1-0.1-0.2l-0.1-1C15.7,5,16.9,5,17.1,5l0.6-0.7c-0.5-0.7-1.2-1.3-2-1.8
			l0.7-0.8c0.3,0.1,0.5,0.3,0.7,0.5c0.5-0.6,0.9-1.3,1.2-2l1.1,0.7c0,0,0,0.1,0,0.2c0,0.1-0.1,0.1-0.2,0.1h-0.2
			c-0.4,0.6-0.8,1.1-1.3,1.6c0.3,0.3,0.3,0.3,0.7,0.7c0.6-0.7,1.1-1.5,1.6-2.4l1.1,0.7c0.1,0,0.1,0.1,0.1,0.2c0,0.2-0.1,0.2-0.2,0.2
			h-0.3c-0.2,0.2-0.4,0.4-0.5,0.7C20.1,3,19.2,4.2,19,4.5c-0.1,0.1-0.2,0.3-0.4,0.4c0.2,0,1.6-0.2,2.1-0.3c-0.3-0.5-0.5-0.7-0.6-0.8
			l0.8-0.5c0.7,0.7,1.2,1.6,1.5,2.5L21.5,6.3z M18,7.2c0.2,0.5,0.5,1,0.9,1.3c0.4-0.4,0.7-0.8,0.9-1.3L18,7.2z"/>
		<path class="st0" d="M29.4,6.8L29,5.5c0.3,0.1,0.7,0.1,1.1,0.1c0.8,0,2.3-0.2,2.3-1.7c0-0.7-0.6-1.1-1.3-1.1c-0.3,0-0.6,0-0.9,0.1
			c0.3,0.4,0.6,0.8,0.9,1.3l-1.1,0.4c-0.2-0.5-0.5-0.9-0.8-1.3c-0.7,0.3-1.3,0.6-1.9,1c0.3,0.6,0.6,1.2,0.8,1.8
			c0.4,0.9,1.2,3,1.5,4.1l-1.2,0.5c-0.5-2-1.3-4-2.1-5.9c-0.6,0.4-1.2,0.8-1.8,1.3l-0.8-1c0.2-0.1,0.3-0.2,0.5-0.3l1.6-1l-0.1-0.2
			c-0.4-0.7-1-1.6-1.4-2.1l1.3-0.5c0.1,0,0.2,0,0.2,0.1c0,0.1-0.1,0.3-0.1,0.4c0.1,0.3,0.2,0.3,0.5,1l0.4,0.8
			c0.6-0.3,1.2-0.6,1.8-0.9C28,2,27.5,1.5,27,1l1.1-0.5c0.5,0.5,1,1.1,1.5,1.7c0.5-0.2,1-0.2,1.5-0.2c1.2-0.1,2.3,0.8,2.4,2
			c0,0,0,0.1,0,0.1C33.5,4.9,32.9,6.8,29.4,6.8z"/>
		<path class="st0" d="M37.3,7.7l-0.8,0.2c-0.4-1.1-0.6-2.3-0.6-3.5c0-1.2,0.2-2.5,0.5-3.7l1.3,0.3c0.1,0,0.2,0.1,0.2,0.2
			s-0.1,0.2-0.4,0.4c-0.4,1-0.6,2.1-0.6,3.1c0,0.4,0,1.1,0.1,1.1s0.1,0,0.2-0.2s0.8-1.8,0.9-1.9l0.6,0.8C38,5.4,37.6,6.5,37.3,7.7z
			 M42.4,1.3c0,0.3,0,1.1,0,2c0,2.7-0.3,5.4-2.4,7.2l-1.2-0.7c0.7-0.4,1.3-1,1.7-1.7C41,6.8,41.3,5.4,41.3,4c0-1.1-0.1-2.2-0.2-3.3
			l1.3,0.1c0.1,0,0.3,0,0.3,0.2S42.5,1.2,42.4,1.3z"/>
		<path class="st0" d="M50.8,3.5C50,3.7,49.3,3.8,48.6,4c-0.2,0.5-0.8,2.7-1,3.1c-0.6,1.6-1,2.6-1.4,3.5l-1.2-0.4
			c1.2-1.8,2-3.9,2.5-6c-0.4,0.1-0.7,0.1-1.1,0.1c-0.4,0-0.6,0-0.9-0.1V3c0.4,0.1,0.9,0.1,1.3,0.1c0.3,0,0.7,0,1-0.1
			c0.2-0.8,0.3-1.7,0.3-2.5l1.3,0.2c0.2,0,0.3,0.1,0.3,0.2s-0.1,0.2-0.4,0.3c-0.2,0.8-0.3,1-0.4,1.7c0.7-0.1,1.4-0.3,2-0.6L50.8,3.5
			z M53.6,10.4c-0.5,0-0.8,0-1.2,0c-2.4,0-2.8-0.2-3.2-0.4c-0.2-0.2-0.4-0.4-0.4-0.7c0.1-0.6,0.4-1.2,0.8-1.6l0.9,0.4
			c-0.3,0.3-0.6,0.6-0.6,0.9c0,0.5,1.5,0.5,1.9,0.5c0.7,0,1.4,0,2-0.2L53.6,10.4z M53.8,5.6c-0.5-0.2-1.1-0.2-1.7-0.2
			c-0.7,0-1.4,0-2,0.2l0.1-1c0.4,0,0.9-0.1,1.8-0.1s1.3,0,1.9,0.1L53.8,5.6z"/>
		<path class="st0" d="M58.3,9.8c-0.5-0.1-1-0.4-1.3-0.8c-0.9-1.2-1.4-2.7-1.3-4.2c0-0.9,0.1-1.8,0.3-2.6c0,0,0-0.3,0-0.3l1.1,0.4
			c0.2,0.1,0.4,0.1,0.4,0.3s-0.1,0.2-0.3,0.3c-0.2,0.7-0.3,1.4-0.3,2.1c0,2,0.8,3.4,1.3,3.4s0.9-1.4,1-2L59.9,7
			C59.7,8.1,59.2,9.8,58.3,9.8z M64.1,7.3c0-1-0.3-2.1-0.7-3c-0.3-0.7-0.6-1.3-1.1-1.9l1.1-0.5c1.1,1.5,1.8,3.2,2,5L64.1,7.3z"/>
		<path class="st0" d="M71.5,10.1c-2.4,0-4.3-0.2-4.3-1.9c0.1-0.8,0.5-1.6,1.2-2.1l0.7,0.7c-0.4,0.3-0.7,0.8-0.8,1.3
			c0,1,1.8,1,2.4,1c1.1,0,2.1-0.1,3.1-0.2c0.4-0.1,0.8-0.2,1.3-0.3l0.1,1.3C73.3,10,72.7,10.1,71.5,10.1z M70.2,2.6
			c-1.1,0-1.5,0-1.9-0.1L68,1.3c0.9,0.2,1.9,0.2,2.8,0.2c1.1,0,2.2-0.1,3.3-0.3v1.2C72.8,2.5,71.5,2.6,70.2,2.6z"/>
		<path class="st0" d="M80.9,5.6c-0.6,0.4-2,1.2-2,2.5c0.1,0.6,0.5,1,1,1.2c0.7,0.2,1.4,0.3,2.1,0.3c1.1,0.1,2.1-0.1,3.2-0.4v1.3
			c-0.9,0.1-1.8,0.2-2.8,0.2c-1.7,0-4.6,0-4.6-2.4c0-2.2,2-3.2,2.6-3.4c-0.4-0.3-0.6-0.8-0.5-1.3c-0.1-1-0.2-2-0.4-3h1.3
			c0.3,0,0.5,0,0.5,0.1S81.1,0.9,80.9,1c0,0.3,0,0.5,0,0.9c0,0.6,0,1.2,0.2,1.7c0.1,0.3,0.2,0.5,0.4,0.7c0.6-0.3,1.2-0.5,1.8-0.7
			c0.6-0.2,1.1-0.4,1.7-0.7l0.3,1.4C83.8,4.4,82.3,4.9,80.9,5.6z"/>
	</g>
</g>
</svg>
